<svg data-v-6805eed4="" version="1.0"
  xmlns="http://www.w3.org/2000/svg"
  xmlns:xlink="http://www.w3.org/1999/xlink" width="50%" height="50%" viewBox="0 0 340.000000 104.000000" preserveAspectRatio="xMidYMid meet" color-interpolation-filters="sRGB" style="margin: auto;">
  <!-- <filter id="shadow" x="-20%" y="-20%" width="140%" height="140%">
    <feDropShadow dx="2" dy="2" stdDeviation="4" flood-color="#000" flood-opacity="0.5" />
  </filter> -->
  <linearGradient id="gradient" x1="0%" y1="100%" x2="0%" y2="0%">
    <stop offset="0%" style="stop-color: purple;" />
    <stop offset="80%" style="stop-color: blue;" />
  </linearGradient>
  <filter id="shadow"  x="-20%" y="-20%" width="140%" height="140%">
    <feDropShadow dx="0" dy="2" stdDeviation="4" flood-color="blue" flood-opacity="0.5" />
  </filter>
  <g data-v-6805eed4="" class="iconmbgsvg" transform="translate(90.66999816894531,0.99795913696289)">
    <g fill="#b722ff" hollow-target="text">
      <g mask="url(#f1af8ae5-20b1-489b-a7c1-467630dde65b)">
        <g>
          <rect fill="#b722ff" fill-opacity="0" stroke-width="2" x="0" y="0" width="102" height="102.00408016320651" class="image-rect"></rect>
          <svg filter="url(#colors2034170464)" x="0" y="0" width="102" height="102.00408016320651" filtersec="colorsf5144826586" class="image-svg-svg primary" style="overflow: visible;">
            <svg xmlns="http://www.w3.org/2000/svg"
              xmlns:xlink="http://www.w3.org/1999/xlink" version="1.1" x="0px" y="0px" viewBox="2.247994899749756 3.6550002098083496 93.89000701904297 93.89400482177734" enable-background="new 0 0 100 100" xml:space="preserve">
              <g d-rs="4" transform="matrix(-1,0,0,1,98.386,0)">
                <path d="M95.138,78.312H84.658v-4.733c0-0.553-0.447-1-1-1h-4.746v-4.746c0-0.553-0.447-1-1-1h-4.746v-3.746h4.746  c0.553,0,1-0.447,1-1v-10.48h4.746c0.553,0,1-0.447,1-1V39.114c0-0.552-0.447-1-1-1H72.166c-0.553,0-1,0.448-1,1v4.746h-4.745  c-0.553,0-1,0.448-1,1v4.746h-3.736V44.86c0-0.552-0.447-1-1-1h-4.746v-4.746c0-0.552-0.447-1-1-1h-4.745v-4.746  c0-0.552-0.447-1-1-1h-4.746v-4.736c0-0.552-0.448-1-1-1h-4.734v-4.746c0-0.552-0.448-1-1-1h-4.748v-4.746c0-0.552-0.448-1-1-1  H27.22v-4.74c0-0.552-0.448-1-1-1h-4.746V4.655c0-0.552-0.448-1-1-1H3.248c-0.552,0-1,0.448-1,1v17.231c0,0.552,0.448,1,1,1h4.746  v4.746c0,0.552,0.448,1,1,1h4.746v4.736c0,0.552,0.448,1,1,1h4.734v4.746c0,0.552,0.448,1,1,1h4.746v4.746c0,0.552,0.448,1,1,1  h4.746v4.746c0,0.552,0.448,1,1,1h4.748v4.734c0,0.553,0.448,1,1,1h4.734v4.746c0,0.553,0.448,1,1,1h4.746v3.746h-4.746  c-0.552,0-1,0.447-1,1v4.746h-4.734c-0.552,0-1,0.447-1,1v11.479c0,0.553,0.448,1,1,1h11.48c0.553,0,1-0.447,1-1v-4.745h10.491  c0.553,0,1-0.448,1-1v-4.733h3.736v4.733c0,0.552,0.447,1,1,1h4.745v4.745c0,0.553,0.447,1,1,1h4.746v10.492c0,0.553,0.447,1,1,1  h17.226c0.553,0,1-0.447,1-1V79.312C96.138,78.76,95.69,78.312,95.138,78.312z M89.142,90.553h-5.233v-5.246h5.233V90.553z   M49.443,73.328v-5.246h10.991v5.246H49.443z M43.697,79.062v-5.233h5.246v5.233H43.697z M71.916,50.856v10.98h-5.245v-10.98H71.916  z M77.662,45.11v5.246h-5.246V45.11H77.662z M66.671,67.582v-5.246h5.245v5.246H66.671z M60.935,62.336h5.236v5.246h-5.236V62.336z   M66.171,61.836h-5.236v-10.98h5.236V61.836z M60.435,62.336v5.246H49.443v-5.246H60.435z M60.935,68.082h5.236v5.246h-5.236V68.082  z M66.671,68.082h5.245v5.246h-5.245V68.082z M72.416,73.828h5.246v5.233h-5.246V73.828z M78.162,79.562h5.246v5.245h-5.246V79.562z   M78.162,79.062v-5.233h5.246v5.233H78.162z M72.416,73.328v-5.246h5.246v5.246H72.416z M72.416,50.856h5.246v10.98h-5.246V50.856z   M78.162,44.86c0-0.138-0.112-0.25-0.25-0.25h-5.496v-5.246h10.992v10.992h-5.246V44.86z M71.916,50.356h-5.245V45.11h5.245V50.356z   M55.188,50.356V45.11h5.246v5.246H55.188z M49.443,44.61v-5.246h5.245v5.246H49.443z M43.697,38.864v-5.246h5.246v5.246H43.697z   M37.963,33.119v-5.236h5.234v5.236H37.963z M32.215,27.383v-5.246h5.248v5.246H32.215z M26.47,21.637v-5.246h5.246v5.246H26.47z   M20.724,15.891v-5.24h5.246v5.24H20.724z M8.994,10.151c-0.138,0-0.25,0.112-0.25,0.25v11.235H3.498V4.905h16.726v5.246H8.994z   M14.49,22.137v5.246H9.244v-5.246H14.49z M20.224,27.883v5.236H14.99v-5.236H20.224z M25.97,33.619v5.246h-5.246v-5.246H25.97z   M31.715,39.364v5.246H26.47v-5.246H31.715z M37.463,45.11v5.246h-5.248V45.11H37.463z M43.197,50.856v5.234h-5.234v-5.234H43.197z   M48.943,56.59v5.246h-5.246V56.59H48.943z M48.943,73.328h-5.246v-5.246h5.246V73.328z M43.197,79.312  c0,0.138,0.112,0.25,0.25,0.25h5.496v5.245h-10.98V73.828h5.234V79.312z M49.443,73.828h10.991v5.233H49.443V73.828z M71.916,73.828  v5.233h-5.245v-5.233H71.916z M77.662,79.562v5.245h-5.246v-5.245H77.662z M83.408,85.307v5.496c0,0.139,0.112,0.25,0.25,0.25h5.733  c0.138,0,0.25-0.111,0.25-0.25v-5.746c0-0.138-0.112-0.25-0.25-0.25h-5.483v-5.245h10.979v16.737H78.162V85.307H83.408z"></path>
              </g>
            </svg>
          </svg>
          <defs>
            <filter id="colors2034170464">
              <feColorMatrix type="matrix" values="0 0 0 0 0  0 0 0 0 0.9453125  0 0 0 0 0.9921875  0 0 0 1 0" class="icon-fecolormatrix"></feColorMatrix>
            </filter>
            <filter id="colorsf5144826586">
              <feColorMatrix type="matrix" values="0 0 0 0 0.99609375  0 0 0 0 0.99609375  0 0 0 0 0.99609375  0 0 0 1 0" class="icon-fecolormatrix"></feColorMatrix>
            </filter>
            <filter id="colorsb5933468492">
              <feColorMatrix type="matrix" values="0 0 0 0 0  0 0 0 0 0  0 0 0 0 0  0 0 0 1 0" class="icon-fecolormatrix"></feColorMatrix>
            </filter>
          </defs>
        </g>
        <rect v-gra="id" width="114" height="114.00408172607422" transform="translate(-6, -6)" style="pointer-events:none;" fill="url(#2iTaVBlSdCzVVK1FSvXty)"></rect>
      </g>
      <g transform="translate(33.34000015258789,43.58079147338867)" filter="url(#shadow)">
        <g data-gra="path-name" fill-rule="" class="tp-name" transform="translate(0,0)" fill="url(#dd80db59-8c4a-4430-b7b9-ede740f1fc4b)">
          <g transform="scale(1)">
            <g>
              <path d="M15.01-21.5L15.01-21.5Q12.39-21.5 10.93-19.36 9.46-17.22 9.46-13.45L9.46-13.45Q9.46-5.62 15.42-5.62L15.42-5.62Q17.22-5.62 18.91-6.12 20.6-6.62 22.3-7.33L22.3-7.33 22.3-1.13Q18.91 0.37 14.62 0.37L14.62 0.37Q8.48 0.37 5.2-3.19 1.93-6.75 1.93-13.49L1.93-13.49Q1.93-17.7 3.52-20.89 5.1-24.08 8.08-25.8 11.06-27.52 15.08-27.52L15.08-27.52Q19.48-27.52 23.49-25.61L23.49-25.61 21.25-19.83Q19.74-20.54 18.24-21.02 16.74-21.5 15.01-21.5ZM43.33-27.13L50.65-27.13 50.65-10.8Q50.65-5.47 47.64-2.55 44.62 0.37 38.95 0.37L38.95 0.37Q33.4 0.37 30.42-2.47 27.44-5.31 27.44-10.63L27.44-10.63 27.44-27.13 34.81-27.13 34.81-11.21Q34.81-8.33 35.88-7.03 36.96-5.73 39.06-5.73L39.06-5.73Q41.3-5.73 42.31-7.02 43.33-8.31 43.33-11.24L43.33-11.24 43.33-27.13ZM56.35 0L56.35-27.13 65.81-27.13Q71.34-27.13 74.02-25.48 76.71-23.84 76.71-20.37L76.71-20.37Q76.71-18.09 75.54-16.48 74.37-14.86 72.46-14.4L72.46-14.4 72.46-14.21Q74.98-13.54 76.11-11.99 77.24-10.43 77.24-7.94L77.24-7.94Q77.24-4.25 74.47-2.12 71.7 0 66.91 0L66.91 0 56.35 0ZM63.68-21.58L63.68-16.72 65.89-16.72Q67.46-16.72 68.33-17.37 69.19-18.02 69.19-19.3L69.19-19.3Q69.19-21.58 65.74-21.58L65.74-21.58 63.68-21.58ZM66.11-11.36L63.68-11.36 63.68-5.66 66.26-5.66Q69.69-5.66 69.69-8.55L69.69-8.55Q69.69-9.91 68.77-10.63 67.85-11.36 66.11-11.36L66.11-11.36ZM98.06-5.97L98.06 0 81.96 0 81.96-27.13 98.06-27.13 98.06-21.25 89.29-21.25 89.29-16.98 97.41-16.98 97.41-11.1 89.29-11.1 89.29-5.97 98.06-5.97ZM118.01-13.3L127.25 0 118.77 0 113.48-8.48 108.25 0 99.95 0 108.95-13.88 100.49-27.13 108.62-27.13 113.52-18.74 118.23-27.13 126.6-27.13 118.01-13.3Z" transform="translate(-1.9300000667572021, 27.520000457763672)"></path>
            </g>            <!---->            <!---->            <!---->            <!---->            <!---->            <!---->            <!---->
          </g>
        </g>
        <g data-gra="path-slogan" fill-rule="" class="tp-slogan" fill="url(#777bb8d8-25d6-47a3-ae0d-c77adb2d3907)" transform="translate(4.840000152587891,33.89000129699707)">          <!---->          <!---->
          <g transform="scale(1, 1)">
            <g transform="scale(1)">
              <path d="M2.06-5.06L6.56-5.06L6.56-8.58L7.73-8.58L7.73 0L6.56 0L6.56-3.98L2.06-3.98L2.06 0L0.89 0L0.89-8.58L2.06-8.58L2.06-5.06ZM13.83-1.03L18.98-1.03L18.98 0L12.66 0L12.66-8.58L18.89-8.58L18.89-7.59L13.83-7.59L13.83-4.92L18.52-4.92L18.52-3.89L13.83-3.89L13.83-1.03ZM23.48-8.58L24.66-8.58L24.66-1.03L29.02-1.03L29.02 0L23.48 0L23.48-8.58ZM33.14-8.58L34.31-8.58L34.31-1.03L38.67-1.03L38.67 0L33.14 0L33.14-8.58ZM49.59-4.27L49.59-4.27Q49.41-7.64 46.59-7.83L46.59-7.83Q43.73-7.69 43.59-4.27L43.59-4.27Q43.73-0.94 46.59-0.80L46.59-0.80Q49.41-0.98 49.59-4.27ZM50.77-4.27L50.77-4.27Q50.48 0 46.59 0.14L46.59 0.14Q42.66 0 42.38-4.27L42.38-4.27Q42.61-8.72 46.59-8.81L46.59-8.81Q50.48-8.67 50.77-4.27ZM66.23-7.13L66.19-7.13L64.22 0L63 0L60.75-8.58L61.97-8.58L63.61-1.59L63.66-1.59L65.58-8.58L66.84-8.58L68.77-1.59L68.81-1.59L70.41-8.58L71.67-8.58L69.42 0L68.20 0L66.23-7.13ZM82.55-4.27L82.55-4.27Q82.36-7.64 79.55-7.83L79.55-7.83Q76.69-7.69 76.55-4.27L76.55-4.27Q76.69-0.94 79.55-0.80L79.55-0.80Q82.36-0.98 82.55-4.27ZM83.72-4.27L83.72-4.27Q83.44 0 79.55 0.14L79.55 0.14Q75.61 0 75.33-4.27L75.33-4.27Q75.56-8.72 79.55-8.81L79.55-8.81Q83.44-8.67 83.72-4.27ZM92.20-3.70L89.39-3.70L89.39 0L88.22 0L88.22-8.58L92.20-8.58Q95.06-8.58 95.06-6.28L95.06-6.28Q95.06-4.88 93.84-4.22L93.84-4.22Q94.88-3.94 94.88-2.58L94.88-2.58L94.97-1.03Q94.92-0.38 95.39-0.19L95.39-0.19L95.39 0L93.94 0Q93.80-0.61 93.75-2.16L93.75-2.16Q93.80-3.70 92.20-3.70L92.20-3.70ZM92.30-7.64L89.39-7.64L89.39-4.69L92.11-4.69Q93.84-4.69 93.84-6.19L93.84-6.19Q93.84-7.64 92.30-7.64L92.30-7.64ZM99.70-8.58L100.88-8.58L100.88-1.03L105.23-1.03L105.23 0L99.70 0L99.70-8.58ZM112.88 0L109.41 0L109.41-8.58L112.92-8.58Q116.39-8.39 116.53-4.41L116.53-4.41Q116.34-0.09 112.88 0L112.88 0ZM112.73-7.64L110.58-7.64L110.58-0.98L112.83-0.98Q115.27-1.13 115.36-4.31L115.36-4.31Q115.31-7.55 112.73-7.64L112.73-7.64Z" transform="translate(-0.890625, 8.8125)"></path>
            </g>
          </g>
        </g>
      </g>
    </g>
  </g>
  <mask id="0f8d21c6-b372-4aa9-af3a-c891a61a1afa">
    <g fill="white">
      <g>
        <rect fill-opacity="1" stroke-width="2" x="0" y="0" width="102" height="102.00408016320651" class="image-rect"></rect>
        <svg x="0" y="0" width="102" height="102.00408016320651" class="image-svg-svg primary" style="overflow: visible;" filter="url(#colorsf5144826586)">
          <svg xmlns="http://www.w3.org/2000/svg"
            xmlns:xlink="http://www.w3.org/1999/xlink" version="1.1" x="0px" y="0px" viewBox="2.247994899749756 3.6550002098083496 93.89000701904297 93.89400482177734" enable-background="new 0 0 100 100" xml:space="preserve">
            <g d-rs="4" transform="matrix(-1,0,0,1,98.386,0)">
              <path d="M95.138,78.312H84.658v-4.733c0-0.553-0.447-1-1-1h-4.746v-4.746c0-0.553-0.447-1-1-1h-4.746v-3.746h4.746  c0.553,0,1-0.447,1-1v-10.48h4.746c0.553,0,1-0.447,1-1V39.114c0-0.552-0.447-1-1-1H72.166c-0.553,0-1,0.448-1,1v4.746h-4.745  c-0.553,0-1,0.448-1,1v4.746h-3.736V44.86c0-0.552-0.447-1-1-1h-4.746v-4.746c0-0.552-0.447-1-1-1h-4.745v-4.746  c0-0.552-0.447-1-1-1h-4.746v-4.736c0-0.552-0.448-1-1-1h-4.734v-4.746c0-0.552-0.448-1-1-1h-4.748v-4.746c0-0.552-0.448-1-1-1  H27.22v-4.74c0-0.552-0.448-1-1-1h-4.746V4.655c0-0.552-0.448-1-1-1H3.248c-0.552,0-1,0.448-1,1v17.231c0,0.552,0.448,1,1,1h4.746  v4.746c0,0.552,0.448,1,1,1h4.746v4.736c0,0.552,0.448,1,1,1h4.734v4.746c0,0.552,0.448,1,1,1h4.746v4.746c0,0.552,0.448,1,1,1  h4.746v4.746c0,0.552,0.448,1,1,1h4.748v4.734c0,0.553,0.448,1,1,1h4.734v4.746c0,0.553,0.448,1,1,1h4.746v3.746h-4.746  c-0.552,0-1,0.447-1,1v4.746h-4.734c-0.552,0-1,0.447-1,1v11.479c0,0.553,0.448,1,1,1h11.48c0.553,0,1-0.447,1-1v-4.745h10.491  c0.553,0,1-0.448,1-1v-4.733h3.736v4.733c0,0.552,0.447,1,1,1h4.745v4.745c0,0.553,0.447,1,1,1h4.746v10.492c0,0.553,0.447,1,1,1  h17.226c0.553,0,1-0.447,1-1V79.312C96.138,78.76,95.69,78.312,95.138,78.312z M89.142,90.553h-5.233v-5.246h5.233V90.553z   M49.443,73.328v-5.246h10.991v5.246H49.443z M43.697,79.062v-5.233h5.246v5.233H43.697z M71.916,50.856v10.98h-5.245v-10.98H71.916  z M77.662,45.11v5.246h-5.246V45.11H77.662z M66.671,67.582v-5.246h5.245v5.246H66.671z M60.935,62.336h5.236v5.246h-5.236V62.336z   M66.171,61.836h-5.236v-10.98h5.236V61.836z M60.435,62.336v5.246H49.443v-5.246H60.435z M60.935,68.082h5.236v5.246h-5.236V68.082  z M66.671,68.082h5.245v5.246h-5.245V68.082z M72.416,73.828h5.246v5.233h-5.246V73.828z M78.162,79.562h5.246v5.245h-5.246V79.562z   M78.162,79.062v-5.233h5.246v5.233H78.162z M72.416,73.328v-5.246h5.246v5.246H72.416z M72.416,50.856h5.246v10.98h-5.246V50.856z   M78.162,44.86c0-0.138-0.112-0.25-0.25-0.25h-5.496v-5.246h10.992v10.992h-5.246V44.86z M71.916,50.356h-5.245V45.11h5.245V50.356z   M55.188,50.356V45.11h5.246v5.246H55.188z M49.443,44.61v-5.246h5.245v5.246H49.443z M43.697,38.864v-5.246h5.246v5.246H43.697z   M37.963,33.119v-5.236h5.234v5.236H37.963z M32.215,27.383v-5.246h5.248v5.246H32.215z M26.47,21.637v-5.246h5.246v5.246H26.47z   M20.724,15.891v-5.24h5.246v5.24H20.724z M8.994,10.151c-0.138,0-0.25,0.112-0.25,0.25v11.235H3.498V4.905h16.726v5.246H8.994z   M14.49,22.137v5.246H9.244v-5.246H14.49z M20.224,27.883v5.236H14.99v-5.236H20.224z M25.97,33.619v5.246h-5.246v-5.246H25.97z   M31.715,39.364v5.246H26.47v-5.246H31.715z M37.463,45.11v5.246h-5.248V45.11H37.463z M43.197,50.856v5.234h-5.234v-5.234H43.197z   M48.943,56.59v5.246h-5.246V56.59H48.943z M48.943,73.328h-5.246v-5.246h5.246V73.328z M43.197,79.312  c0,0.138,0.112,0.25,0.25,0.25h5.496v5.245h-10.98V73.828h5.234V79.312z M49.443,73.828h10.991v5.233H49.443V73.828z M71.916,73.828  v5.233h-5.245v-5.233H71.916z M77.662,79.562v5.245h-5.246v-5.245H77.662z M83.408,85.307v5.496c0,0.139,0.112,0.25,0.25,0.25h5.733  c0.138,0,0.25-0.111,0.25-0.25v-5.746c0-0.138-0.112-0.25-0.25-0.25h-5.483v-5.245h10.979v16.737H78.162V85.307H83.408z"></path>
            </g>
          </svg>
        </svg>
        <defs></defs>
      </g>
    </g>
    <g transform="translate(33.34000015258789,43.58079147338867)" fill="black" stroke="black" stroke-width="6" stroke-linejoin="round">
      <g data-gra="path-name" fill-rule="" class="tp-name" transform="translate(0,0)">
        <g transform="scale(1)">
          <g>
            <path d="M15.01-21.5L15.01-21.5Q12.39-21.5 10.93-19.36 9.46-17.22 9.46-13.45L9.46-13.45Q9.46-5.62 15.42-5.62L15.42-5.62Q17.22-5.62 18.91-6.12 20.6-6.62 22.3-7.33L22.3-7.33 22.3-1.13Q18.91 0.37 14.62 0.37L14.62 0.37Q8.48 0.37 5.2-3.19 1.93-6.75 1.93-13.49L1.93-13.49Q1.93-17.7 3.52-20.89 5.1-24.08 8.08-25.8 11.06-27.52 15.08-27.52L15.08-27.52Q19.48-27.52 23.49-25.61L23.49-25.61 21.25-19.83Q19.74-20.54 18.24-21.02 16.74-21.5 15.01-21.5ZM43.33-27.13L50.65-27.13 50.65-10.8Q50.65-5.47 47.64-2.55 44.62 0.37 38.95 0.37L38.95 0.37Q33.4 0.37 30.42-2.47 27.44-5.31 27.44-10.63L27.44-10.63 27.44-27.13 34.81-27.13 34.81-11.21Q34.81-8.33 35.88-7.03 36.96-5.73 39.06-5.73L39.06-5.73Q41.3-5.73 42.31-7.02 43.33-8.31 43.33-11.24L43.33-11.24 43.33-27.13ZM56.35 0L56.35-27.13 65.81-27.13Q71.34-27.13 74.02-25.48 76.71-23.84 76.71-20.37L76.71-20.37Q76.71-18.09 75.54-16.48 74.37-14.86 72.46-14.4L72.46-14.4 72.46-14.21Q74.98-13.54 76.11-11.99 77.24-10.43 77.24-7.94L77.24-7.94Q77.24-4.25 74.47-2.12 71.7 0 66.91 0L66.91 0 56.35 0ZM63.68-21.58L63.68-16.72 65.89-16.72Q67.46-16.72 68.33-17.37 69.19-18.02 69.19-19.3L69.19-19.3Q69.19-21.58 65.74-21.58L65.74-21.58 63.68-21.58ZM66.11-11.36L63.68-11.36 63.68-5.66 66.26-5.66Q69.69-5.66 69.69-8.55L69.69-8.55Q69.69-9.91 68.77-10.63 67.85-11.36 66.11-11.36L66.11-11.36ZM98.06-5.97L98.06 0 81.96 0 81.96-27.13 98.06-27.13 98.06-21.25 89.29-21.25 89.29-16.98 97.41-16.98 97.41-11.1 89.29-11.1 89.29-5.97 98.06-5.97ZM118.01-13.3L127.25 0 118.77 0 113.48-8.48 108.25 0 99.95 0 108.95-13.88 100.49-27.13 108.62-27.13 113.52-18.74 118.23-27.13 126.6-27.13 118.01-13.3Z" transform="translate(-1.9300000667572021, 27.520000457763672)"></path>
          </g>
        </g>
      </g>
      <g data-gra="path-slogan" fill-rule="" class="tp-slogan" transform="translate(4.840000152587891,33.89000129699707)" fill="white">
        <g transform="scale(1, 1)">
          <g transform="scale(1)">
            <path d="M2.06-5.06L6.56-5.06L6.56-8.58L7.73-8.58L7.73 0L6.56 0L6.56-3.98L2.06-3.98L2.06 0L0.89 0L0.89-8.58L2.06-8.58L2.06-5.06ZM13.83-1.03L18.98-1.03L18.98 0L12.66 0L12.66-8.58L18.89-8.58L18.89-7.59L13.83-7.59L13.83-4.92L18.52-4.92L18.52-3.89L13.83-3.89L13.83-1.03ZM23.48-8.58L24.66-8.58L24.66-1.03L29.02-1.03L29.02 0L23.48 0L23.48-8.58ZM33.14-8.58L34.31-8.58L34.31-1.03L38.67-1.03L38.67 0L33.14 0L33.14-8.58ZM49.59-4.27L49.59-4.27Q49.41-7.64 46.59-7.83L46.59-7.83Q43.73-7.69 43.59-4.27L43.59-4.27Q43.73-0.94 46.59-0.80L46.59-0.80Q49.41-0.98 49.59-4.27ZM50.77-4.27L50.77-4.27Q50.48 0 46.59 0.14L46.59 0.14Q42.66 0 42.38-4.27L42.38-4.27Q42.61-8.72 46.59-8.81L46.59-8.81Q50.48-8.67 50.77-4.27ZM66.23-7.13L66.19-7.13L64.22 0L63 0L60.75-8.58L61.97-8.58L63.61-1.59L63.66-1.59L65.58-8.58L66.84-8.58L68.77-1.59L68.81-1.59L70.41-8.58L71.67-8.58L69.42 0L68.20 0L66.23-7.13ZM82.55-4.27L82.55-4.27Q82.36-7.64 79.55-7.83L79.55-7.83Q76.69-7.69 76.55-4.27L76.55-4.27Q76.69-0.94 79.55-0.80L79.55-0.80Q82.36-0.98 82.55-4.27ZM83.72-4.27L83.72-4.27Q83.44 0 79.55 0.14L79.55 0.14Q75.61 0 75.33-4.27L75.33-4.27Q75.56-8.72 79.55-8.81L79.55-8.81Q83.44-8.67 83.72-4.27ZM92.20-3.70L89.39-3.70L89.39 0L88.22 0L88.22-8.58L92.20-8.58Q95.06-8.58 95.06-6.28L95.06-6.28Q95.06-4.88 93.84-4.22L93.84-4.22Q94.88-3.94 94.88-2.58L94.88-2.58L94.97-1.03Q94.92-0.38 95.39-0.19L95.39-0.19L95.39 0L93.94 0Q93.80-0.61 93.75-2.16L93.75-2.16Q93.80-3.70 92.20-3.70L92.20-3.70ZM92.30-7.64L89.39-7.64L89.39-4.69L92.11-4.69Q93.84-4.69 93.84-6.19L93.84-6.19Q93.84-7.64 92.30-7.64L92.30-7.64ZM99.70-8.58L100.88-8.58L100.88-1.03L105.23-1.03L105.23 0L99.70 0L99.70-8.58ZM112.88 0L109.41 0L109.41-8.58L112.92-8.58Q116.39-8.39 116.53-4.41L116.53-4.41Q116.34-0.09 112.88 0L112.88 0ZM112.73-7.64L110.58-7.64L110.58-0.98L112.83-0.98Q115.27-1.13 115.36-4.31L115.36-4.31Q115.31-7.55 112.73-7.64L112.73-7.64Z" transform="translate(-0.890625, 8.8125)"></path>
          </g>
        </g>
      </g>
    </g>
  </mask>
  <defs v-gra="od">
    <linearGradient x1="0" y1="1" x2="0" y2="0" id="777bb8d8-25d6-47a3-ae0d-c77adb2d3907">
      <stop offset="0%" stop-color="#b722ff"></stop>
      <stop offset="100%" stop-color="#22d4fe"></stop>
    </linearGradient>
    <filter id="42443b3f1de60f6b6fd3b6a9844b4764" filterUnits="objectBoundingBox">
      <feColorMatrix type="matrix" values="0 0 0 0 0.99609375  0 0 0 0 0.99609375  0 0 0 0 0.99609375  0 0 0 1 0"></feColorMatrix>
    </filter>
    <linearGradient x1="0" y1="1" x2="0" y2="0" id="dd80db59-8c4a-4430-b7b9-ede740f1fc4b">
      <stop offset="0%" stop-color="#b722ff"></stop>
      <stop offset="100%" stop-color="#22d4fe"></stop>
    </linearGradient>
    <filter id="42443b3f1de60f6b6fd3b6a9844b4764" filterUnits="objectBoundingBox">
      <feColorMatrix type="matrix" values="0 0 0 0 0.99609375  0 0 0 0 0.99609375  0 0 0 0 0.99609375  0 0 0 1 0"></feColorMatrix>
    </filter>
  </defs>
  <defs v-gra="id">
    <filter id="165aa474-557b-4a16-885f-8bc16830192b" filterUnits="userSpaceOnUse">
      <feColorMatrix type="matrix" values="0 0 0 0 0.99609375  0 0 0 0 0.99609375  0 0 0 0 0.99609375  0 0 0 1 0"></feColorMatrix>
    </filter>
    <linearGradient x1="0" y1="1" x2="0" y2="0" id="2iTaVBlSdCzVVK1FSvXty">
      <stop offset="0%" stop-color="#b722ff"></stop>
      <stop offset="100%" stop-color="#22d4fe"></stop>
    </linearGradient>
    <filter id="42443b3f1de60f6b6fd3b6a9844b4764" filterUnits="objectBoundingBox">
      <feColorMatrix type="matrix" values="0 0 0 0 0.99609375  0 0 0 0 0.99609375  0 0 0 0 0.99609375  0 0 0 1 0"></feColorMatrix>
    </filter>
  </defs>
  <mask v-gra="im" id="f1af8ae5-20b1-489b-a7c1-467630dde65b">
    <g mask="url(#0f8d21c6-b372-4aa9-af3a-c891a61a1afa)" filter="url(#165aa474-557b-4a16-885f-8bc16830192b)">
      <g>
        <rect fill="#b722ff" fill-opacity="0" stroke-width="2" x="0" y="0" width="102" height="102.00408016320651" class="image-rect"></rect>
        <svg x="0" y="0" width="102" height="102.00408016320651" filtersec="colorsf5144826586" class="image-svg-svg primary" style="overflow: visible;">
          <svg xmlns="http://www.w3.org/2000/svg"
            xmlns:xlink="http://www.w3.org/1999/xlink" version="1.1" x="0px" y="0px" viewBox="2.247994899749756 3.6550002098083496 93.89000701904297 93.89400482177734" enable-background="new 0 0 100 100" xml:space="preserve">
            <g d-rs="4" transform="matrix(-1,0,0,1,98.386,0)">
              <path d="M95.138,78.312H84.658v-4.733c0-0.553-0.447-1-1-1h-4.746v-4.746c0-0.553-0.447-1-1-1h-4.746v-3.746h4.746  c0.553,0,1-0.447,1-1v-10.48h4.746c0.553,0,1-0.447,1-1V39.114c0-0.552-0.447-1-1-1H72.166c-0.553,0-1,0.448-1,1v4.746h-4.745  c-0.553,0-1,0.448-1,1v4.746h-3.736V44.86c0-0.552-0.447-1-1-1h-4.746v-4.746c0-0.552-0.447-1-1-1h-4.745v-4.746  c0-0.552-0.447-1-1-1h-4.746v-4.736c0-0.552-0.448-1-1-1h-4.734v-4.746c0-0.552-0.448-1-1-1h-4.748v-4.746c0-0.552-0.448-1-1-1  H27.22v-4.74c0-0.552-0.448-1-1-1h-4.746V4.655c0-0.552-0.448-1-1-1H3.248c-0.552,0-1,0.448-1,1v17.231c0,0.552,0.448,1,1,1h4.746  v4.746c0,0.552,0.448,1,1,1h4.746v4.736c0,0.552,0.448,1,1,1h4.734v4.746c0,0.552,0.448,1,1,1h4.746v4.746c0,0.552,0.448,1,1,1  h4.746v4.746c0,0.552,0.448,1,1,1h4.748v4.734c0,0.553,0.448,1,1,1h4.734v4.746c0,0.553,0.448,1,1,1h4.746v3.746h-4.746  c-0.552,0-1,0.447-1,1v4.746h-4.734c-0.552,0-1,0.447-1,1v11.479c0,0.553,0.448,1,1,1h11.48c0.553,0,1-0.447,1-1v-4.745h10.491  c0.553,0,1-0.448,1-1v-4.733h3.736v4.733c0,0.552,0.447,1,1,1h4.745v4.745c0,0.553,0.447,1,1,1h4.746v10.492c0,0.553,0.447,1,1,1  h17.226c0.553,0,1-0.447,1-1V79.312C96.138,78.76,95.69,78.312,95.138,78.312z M89.142,90.553h-5.233v-5.246h5.233V90.553z   M49.443,73.328v-5.246h10.991v5.246H49.443z M43.697,79.062v-5.233h5.246v5.233H43.697z M71.916,50.856v10.98h-5.245v-10.98H71.916  z M77.662,45.11v5.246h-5.246V45.11H77.662z M66.671,67.582v-5.246h5.245v5.246H66.671z M60.935,62.336h5.236v5.246h-5.236V62.336z   M66.171,61.836h-5.236v-10.98h5.236V61.836z M60.435,62.336v5.246H49.443v-5.246H60.435z M60.935,68.082h5.236v5.246h-5.236V68.082  z M66.671,68.082h5.245v5.246h-5.245V68.082z M72.416,73.828h5.246v5.233h-5.246V73.828z M78.162,79.562h5.246v5.245h-5.246V79.562z   M78.162,79.062v-5.233h5.246v5.233H78.162z M72.416,73.328v-5.246h5.246v5.246H72.416z M72.416,50.856h5.246v10.98h-5.246V50.856z   M78.162,44.86c0-0.138-0.112-0.25-0.25-0.25h-5.496v-5.246h10.992v10.992h-5.246V44.86z M71.916,50.356h-5.245V45.11h5.245V50.356z   M55.188,50.356V45.11h5.246v5.246H55.188z M49.443,44.61v-5.246h5.245v5.246H49.443z M43.697,38.864v-5.246h5.246v5.246H43.697z   M37.963,33.119v-5.236h5.234v5.236H37.963z M32.215,27.383v-5.246h5.248v5.246H32.215z M26.47,21.637v-5.246h5.246v5.246H26.47z   M20.724,15.891v-5.24h5.246v5.24H20.724z M8.994,10.151c-0.138,0-0.25,0.112-0.25,0.25v11.235H3.498V4.905h16.726v5.246H8.994z   M14.49,22.137v5.246H9.244v-5.246H14.49z M20.224,27.883v5.236H14.99v-5.236H20.224z M25.97,33.619v5.246h-5.246v-5.246H25.97z   M31.715,39.364v5.246H26.47v-5.246H31.715z M37.463,45.11v5.246h-5.248V45.11H37.463z M43.197,50.856v5.234h-5.234v-5.234H43.197z   M48.943,56.59v5.246h-5.246V56.59H48.943z M48.943,73.328h-5.246v-5.246h5.246V73.328z M43.197,79.312  c0,0.138,0.112,0.25,0.25,0.25h5.496v5.245h-10.98V73.828h5.234V79.312z M49.443,73.828h10.991v5.233H49.443V73.828z M71.916,73.828  v5.233h-5.245v-5.233H71.916z M77.662,79.562v5.245h-5.246v-5.245H77.662z M83.408,85.307v5.496c0,0.139,0.112,0.25,0.25,0.25h5.733  c0.138,0,0.25-0.111,0.25-0.25v-5.746c0-0.138-0.112-0.25-0.25-0.25h-5.483v-5.245h10.979v16.737H78.162V85.307H83.408z"></path>
            </g>
          </svg>
        </svg>
        <defs>
          <filter id="colors2034170464">
            <feColorMatrix type="matrix" values="0 0 0 0 0  0 0 0 0 0.9453125  0 0 0 0 0.9921875  0 0 0 1 0" class="icon-fecolormatrix"></feColorMatrix>
          </filter>
          <filter id="colorsf5144826586">
            <feColorMatrix type="matrix" values="0 0 0 0 0.99609375  0 0 0 0 0.99609375  0 0 0 0 0.99609375  0 0 0 1 0" class="icon-fecolormatrix"></feColorMatrix>
          </filter>
          <filter id="colorsb5933468492">
            <feColorMatrix type="matrix" values="0 0 0 0 0  0 0 0 0 0  0 0 0 0 0  0 0 0 1 0" class="icon-fecolormatrix"></feColorMatrix>
          </filter>
        </defs>
      </g>
    </g>
  </mask>
</svg>